<?xml version="1.0" encoding="utf-8"?>
<!-- Generator: Adobe Illustrator 26.1.0, SVG Export Plug-In . SVG Version: 6.00 Build 0)  -->
<svg version="1.1" id="Layer_1" xmlns="http://www.w3.org/2000/svg" xmlns:xlink="http://www.w3.org/1999/xlink" x="0px" y="0px"
	 viewBox="0 0 33 33" style="enable-background:new 0 0 33 33;" xml:space="preserve">
<style type="text/css">
	.st0{clip-path:url(#SVGID_00000134933477375739308760000002222097500422073521_);}
	.st1{fill:#FFFFFF;}
</style>
<g>
	<defs>
		<rect id="SVGID_1_" x="-0.5" width="34" height="33"/>
	</defs>
	<clipPath id="SVGID_00000099619818115074293500000005934618183261160378_">
		<use xlink:href="#SVGID_1_"  style="overflow:visible;"/>
	</clipPath>
	<g style="clip-path:url(#SVGID_00000099619818115074293500000005934618183261160378_);">
		<g id="Mask_Group_41">
			<g id="Cross_POS">
				<path id="Path_6736" class="st1" d="M17.5,16.5l7-7.1c0.3-0.2,0.3-0.7,0.1-0.9c0,0,0,0-0.1-0.1c-0.3-0.2-0.7-0.2-0.9,0l-7.1,7.1
					L9.4,8.5C9.2,8.2,8.8,8.2,8.5,8.4c0,0,0,0-0.1,0.1c-0.2,0.3-0.2,0.7,0,0.9l7.1,7.1l-7,7.1c-0.3,0.3-0.3,0.7,0,0.9c0,0,0,0,0,0
					l0,0c0.3,0.3,0.7,0.3,0.9,0c0,0,0,0,0,0l0,0l7.1-7.1l7.1,7.1c0.3,0.3,0.7,0.3,0.9,0c0,0,0,0,0,0l0,0c0.3-0.3,0.3-0.7,0-0.9
					c0,0,0,0,0,0l0,0L17.5,16.5z"/>
				<path id="Path_6737" class="st1" d="M16.5,1.4c8.4,0,15.1,6.8,15.1,15.1s-6.8,15.1-15.1,15.1c-8.3,0-15.1-6.8-15.1-15.1
					C1.4,8.1,8.1,1.4,16.5,1.4C16.5,1.4,16.5,1.4,16.5,1.4 M16.5,0C7.4,0,0.1,7.4,0.1,16.5c0,9.1,7.4,16.4,16.5,16.4
					c9.1,0,16.4-7.4,16.4-16.5C33,7.4,25.6,0,16.5,0L16.5,0z"/>
			</g>
		</g>
	</g>
</g>
</svg>
