<svg id="Layer_1" data-name="Layer 1" xmlns="http://www.w3.org/2000/svg" xmlns:xlink="http://www.w3.org/1999/xlink" viewBox="0 0 33 33"><defs><style>.cls-1{fill:none;}.cls-2{clip-path:url(#clip-path);}</style><clipPath id="clip-path" transform="translate(-0.5 0)"><rect class="cls-1" width="34" height="33"/></clipPath></defs><g class="cls-2"><g id="Mask_Group_41" data-name="Mask Group 41"><g id="Cross_POS" data-name="Cross POS"><path id="Path_6736" data-name="Path 6736" d="M18,16.5,25,9.42a.67.67,0,0,0,0-1,.68.68,0,0,0-.92,0L17,15.54,9.92,8.46a.67.67,0,0,0-1,0,.68.68,0,0,0,0,.92L16,16.5,9,23.58a.66.66,0,0,0,0,.94l0,0a.66.66,0,0,0,.94,0l0,0L17,17.46l7.08,7.08a.66.66,0,0,0,.94,0l0,0a.66.66,0,0,0,0-.94l0,0Z" transform="translate(-0.5 0)"/><path id="Path_6737" data-name="Path 6737" d="M17,1.38A15.12,15.12,0,1,1,1.87,16.5,15.12,15.12,0,0,1,17,1.38M17,0a16.46,16.46,0,1,0,.08,0Z" transform="translate(-0.5 0)"/></g></g></g></svg>