<?xml version="1.0" encoding="utf-8"?>
<!-- Generator: Adobe Illustrator 26.0.3, SVG Export Plug-In . SVG Version: 6.00 Build 0)  -->
<svg version="1.1" id="Layer_1" xmlns="http://www.w3.org/2000/svg" xmlns:xlink="http://www.w3.org/1999/xlink" x="0px" y="0px"
	 viewBox="0 0 403.2 98" style="enable-background:new 0 0 403.2 98;" xml:space="preserve">
<style type="text/css">
	.st0{clip-path:url(#SVGID_00000160156609409042735560000015411767821311057084_);}
	.st1{opacity:0.8;}
	.st2{clip-path:url(#SVGID_00000018213886172976636760000015680373198968469917_);}
	.st3{fill:#FFFFFF;}
	.st4{clip-path:url(#SVGID_00000070081979458666224110000012321288107870635955_);}
</style>
<g id="Group_2740">
	<g>
		<defs>
			<rect id="SVGID_1_" x="-8.4" y="-3.4" width="426.8" height="133.2"/>
		</defs>
		<clipPath id="SVGID_00000009562186229566893660000016702773488686928824_">
			<use xlink:href="#SVGID_1_"  style="overflow:visible;"/>
		</clipPath>
		<g style="clip-path:url(#SVGID_00000009562186229566893660000016702773488686928824_);">
			<g id="Group_2611">
				<g id="Group_2610" class="st1">
					<g id="Group_2609">
						<g>
							<defs>
								<rect id="SVGID_00000177482592314566448550000006453447245314003851_" x="-19.5" y="-32.3" width="599.4" height="154.3"/>
							</defs>
							<clipPath id="SVGID_00000002354223845097784220000017842014617702842286_">
								<use xlink:href="#SVGID_00000177482592314566448550000006453447245314003851_"  style="overflow:visible;"/>
							</clipPath>
							<g style="clip-path:url(#SVGID_00000002354223845097784220000017842014617702842286_);">
								<g id="Group_2608">
									<path id="Path_1446" class="st3" d="M0.1,0.7h28.2l23,37.3l23-37.3h28.2v96.4H76V41.7L51.3,79.4h-0.5L26.3,42v55.1H0.1V0.7
										z"/>
									<path id="Path_1447" class="st3" d="M149,0h25.7l41,97.1h-28.6l-7-17.2h-37.2L136,97.1h-28.1L149,0z M172.4,59.1
										l-10.7-27.4l-10.9,27.4L172.4,59.1z"/>
									<g id="Group_2607">
										<g>
											<defs>
												
													<rect id="SVGID_00000145749416594759436740000017828170828724745134_" x="-19.5" y="-32.3" width="599.4" height="154.3"/>
											</defs>
											<clipPath id="SVGID_00000158739324386433089990000017825133680265899906_">
												<use xlink:href="#SVGID_00000145749416594759436740000017828170828724745134_"  style="overflow:visible;"/>
											</clipPath>
											<g style="clip-path:url(#SVGID_00000158739324386433089990000017825133680265899906_);">
												<g id="Group_2606">
													<path id="Path_1448" class="st3" d="M221,0.7h37.2c34.4,0,54.4,19.9,54.4,47.6v0.3c0,27.8-20.2,48.5-54.9,48.5H221V0.7
														z M258.6,73.4c16,0,26.6-8.8,26.6-24.4v-0.3c0-15.4-10.6-24.4-26.6-24.4h-10.9v49L258.6,73.4z"/>
													<path id="Path_1449" class="st3" d="M322.3,0.7h77.5v22.7h-51.1V38H395v21.1h-46.3v15.3h51.8v22.7h-78.3V0.7z"/>
												</g>
											</g>
										</g>
									</g>
								</g>
							</g>
						</g>
					</g>
				</g>
			</g>
		</g>
	</g>
</g>
</svg>
